<svg class="main-svg" xmlns="http://www.w3.org/2000/svg" xmlns:xlink="http://www.w3.org/1999/xlink" width="440" height="380" style="" viewBox="0 0 440 380"><rect x="0" y="0" width="440" height="380" style="fill: rgb(255, 255, 255); fill-opacity: 1;"/><defs id="defs-0fbb05"><g class="clips"><clipPath id="clip0fbb05xyplot" class="plotclip"><rect width="373" height="262"/></clipPath><clipPath class="axesclip" id="clip0fbb05x"><rect x="57" y="0" width="373" height="380"/></clipPath><clipPath class="axesclip" id="clip0fbb05y"><rect x="0" y="30" width="440" height="262"/></clipPath><clipPath class="axesclip" id="clip0fbb05xy"><rect x="57" y="30" width="373" height="262"/></clipPath></g><g class="gradients"/><g class="patterns"/></defs><g class="bglayer"/><g class="layer-below"><g class="imagelayer"/><g class="shapelayer"/></g><g class="cartesianlayer"><g class="subplot xy"><g class="layer-subplot"><g class="shapelayer"/><g class="imagelayer"/></g><g class="minor-gridlayer"><g class="x"/><g class="y"/></g><g class="gridlayer"><g class="x"><path class="xgrid crisp" transform="translate(85.81,0)" d="M0,30v262" style="stroke: rgb(235, 240, 248); stroke-opacity: 1; stroke-width: 1px;"/><path class="xgrid crisp" transform="translate(216.41,0)" d="M0,30v262" style="stroke: rgb(235, 240, 248); stroke-opacity: 1; stroke-width: 1px;"/><path class="xgrid crisp" transform="translate(347.01,0)" d="M0,30v262" style="stroke: rgb(235, 240, 248); stroke-opacity: 1; stroke-width: 1px;"/></g><g class="y"><path class="ygrid crisp" transform="translate(0,276.6)" d="M57,0h373" style="stroke: rgb(235, 240, 248); stroke-opacity: 1; stroke-width: 1px;"/><path class="ygrid crisp" transform="translate(0,210.11)" d="M57,0h373" style="stroke: rgb(235, 240, 248); stroke-opacity: 1; stroke-width: 1px;"/><path class="ygrid crisp" transform="translate(0,143.61)" d="M57,0h373" style="stroke: rgb(235, 240, 248); stroke-opacity: 1; stroke-width: 1px;"/><path class="ygrid crisp" transform="translate(0,77.12)" d="M57,0h373" style="stroke: rgb(235, 240, 248); stroke-opacity: 1; stroke-width: 1px;"/></g></g><g class="zerolinelayer"/><g class="layer-between"><g class="shapelayer"/><g class="imagelayer"/></g><path class="xlines-below"/><path class="ylines-below"/><g class="overlines-below"/><g class="xaxislayer-below"/><g class="yaxislayer-below"/><g class="overaxes-below"/><g class="overplot"><g class="xy" transform="translate(57,30)" clip-path="url(#clip0fbb05xyplot)"><g class="scatterlayer mlayer"><g class="trace scatter traceaf8b9a" style="stroke-miterlimit: 2; opacity: 1;"><g class="fills"/><g class="errorbars"/><g class="lines"/><g class="points"><path class="point" transform="translate(64.07,215.35)" d="M4.5,0A4.5,4.5 0 1,1 0,-4.5A4.5,4.5 0 0,1 4.5,0Z" style="opacity: 0.85; stroke-width: 0.5px; fill: rgb(100, 149, 237); fill-opacity: 1; stroke: rgb(0, 0, 0); stroke-opacity: 1;"/><path class="point" transform="translate(172.47,123.59)" d="M4.5,0A4.5,4.5 0 1,1 0,-4.5A4.5,4.5 0 0,1 4.5,0Z" style="opacity: 0.85; stroke-width: 0.5px; fill: rgb(100, 149, 237); fill-opacity: 1; stroke: rgb(0, 0, 0); stroke-opacity: 1;"/><path class="point" transform="translate(215.57,83.69)" d="M4.5,0A4.5,4.5 0 1,1 0,-4.5A4.5,4.5 0 0,1 4.5,0Z" style="opacity: 0.85; stroke-width: 0.5px; fill: rgb(100, 149, 237); fill-opacity: 1; stroke: rgb(0, 0, 0); stroke-opacity: 1;"/><path class="point" transform="translate(27.5,192.74)" d="M4.5,0A4.5,4.5 0 1,1 0,-4.5A4.5,4.5 0 0,1 4.5,0Z" style="opacity: 0.85; stroke-width: 0.5px; fill: rgb(100, 149, 237); fill-opacity: 1; stroke: rgb(0, 0, 0); stroke-opacity: 1;"/><path class="point" transform="translate(138.51,214.68)" d="M4.5,0A4.5,4.5 0 1,1 0,-4.5A4.5,4.5 0 0,1 4.5,0Z" style="opacity: 0.85; stroke-width: 0.5px; fill: rgb(100, 149, 237); fill-opacity: 1; stroke: rgb(0, 0, 0); stroke-opacity: 1;"/><path class="point" transform="translate(327.89,146.86)" d="M4.5,0A4.5,4.5 0 1,1 0,-4.5A4.5,4.5 0 0,1 4.5,0Z" style="opacity: 0.85; stroke-width: 0.5px; fill: rgb(100, 149, 237); fill-opacity: 1; stroke: rgb(0, 0, 0); stroke-opacity: 1;"/><path class="point" transform="translate(190.75,130.24)" d="M4.5,0A4.5,4.5 0 1,1 0,-4.5A4.5,4.5 0 0,1 4.5,0Z" style="opacity: 0.85; stroke-width: 0.5px; fill: rgb(100, 149, 237); fill-opacity: 1; stroke: rgb(0, 0, 0); stroke-opacity: 1;"/><path class="point" transform="translate(330.5,33.15)" d="M5.85,0L0,5.85L-5.85,0L0,-5.85Z" style="opacity: 0.85; stroke-width: 0.5px; fill: rgb(255, 0, 0); fill-opacity: 1; stroke: rgb(0, 0, 0); stroke-opacity: 1;"/><path class="point" transform="translate(320.05,28.5)" d="M5.85,0L0,5.85L-5.85,0L0,-5.85Z" style="opacity: 0.85; stroke-width: 0.5px; fill: rgb(255, 0, 0); fill-opacity: 1; stroke: rgb(0, 0, 0); stroke-opacity: 1;"/><path class="point" transform="translate(52.31,243.28)" d="M4.5,0A4.5,4.5 0 1,1 0,-4.5A4.5,4.5 0 0,1 4.5,0Z" style="opacity: 0.85; stroke-width: 0.5px; fill: rgb(100, 149, 237); fill-opacity: 1; stroke: rgb(0, 0, 0); stroke-opacity: 1;"/><path class="point" transform="translate(145.04,177.45)" d="M4.5,0A4.5,4.5 0 1,1 0,-4.5A4.5,4.5 0 0,1 4.5,0Z" style="opacity: 0.85; stroke-width: 0.5px; fill: rgb(100, 149, 237); fill-opacity: 1; stroke: rgb(0, 0, 0); stroke-opacity: 1;"/></g><g class="text"/></g><g class="trace scatter traced681f8" style="stroke-miterlimit: 2; opacity: 1;"><g class="fills"/><g class="errorbars"/><g class="lines"/><g class="points"/><g class="text"/></g><g class="trace scatter trace2177e3" style="stroke-miterlimit: 2; opacity: 1;"><g class="fills"/><g class="errorbars"/><g class="lines"/><g class="points"/><g class="text"/></g></g></g></g><path class="xlines-above crisp" d="M0,0" style="fill: none;"/><path class="ylines-above crisp" d="M0,0" style="fill: none;"/><g class="overlines-above"/><g class="xaxislayer-above"><g class="xtick"><text text-anchor="middle" x="0" y="303" transform="translate(85.81,0)" style="font-family: 'Open Sans', verdana, arial, sans-serif; font-size: 10px; fill: rgb(42, 63, 95); fill-opacity: 1; white-space: pre; opacity: 1;">0.03</text></g><g class="xtick"><text text-anchor="middle" x="0" y="303" style="font-family: 'Open Sans', verdana, arial, sans-serif; font-size: 10px; fill: rgb(42, 63, 95); fill-opacity: 1; white-space: pre; opacity: 1;" transform="translate(216.41,0)">0.04</text></g><g class="xtick"><text text-anchor="middle" x="0" y="303" style="font-family: 'Open Sans', verdana, arial, sans-serif; font-size: 10px; fill: rgb(42, 63, 95); fill-opacity: 1; white-space: pre; opacity: 1;" transform="translate(347.01,0)">0.05</text></g></g><g class="yaxislayer-above"><g class="ytick"><text text-anchor="end" x="56" y="3.5" transform="translate(0,276.6)" style="font-family: 'Open Sans', verdana, arial, sans-serif; font-size: 10px; fill: rgb(42, 63, 95); fill-opacity: 1; white-space: pre; opacity: 1;">0.06</text></g><g class="ytick"><text text-anchor="end" x="56" y="3.5" style="font-family: 'Open Sans', verdana, arial, sans-serif; font-size: 10px; fill: rgb(42, 63, 95); fill-opacity: 1; white-space: pre; opacity: 1;" transform="translate(0,210.11)">0.07</text></g><g class="ytick"><text text-anchor="end" x="56" y="3.5" style="font-family: 'Open Sans', verdana, arial, sans-serif; font-size: 10px; fill: rgb(42, 63, 95); fill-opacity: 1; white-space: pre; opacity: 1;" transform="translate(0,143.61)">0.08</text></g><g class="ytick"><text text-anchor="end" x="56" y="3.5" style="font-family: 'Open Sans', verdana, arial, sans-serif; font-size: 10px; fill: rgb(42, 63, 95); fill-opacity: 1; white-space: pre; opacity: 1;" transform="translate(0,77.12)">0.09</text></g></g><g class="overaxes-above"/></g></g><g class="polarlayer"/><g class="smithlayer"/><g class="ternarylayer"/><g class="geolayer"/><g class="funnelarealayer"/><g class="pielayer"/><g class="iciclelayer"/><g class="treemaplayer"/><g class="sunburstlayer"/><g class="glimages"/><defs id="topdefs-0fbb05"><g class="clips"/><clipPath id="legend0fbb05"><rect width="293" height="29" x="0" y="0"/></clipPath></defs><g class="layer-above"><g class="imagelayer"/><g class="shapelayer"/></g><g class="infolayer"><g class="legend" pointer-events="all" transform="translate(57,341.6)"><rect class="bg" shape-rendering="crispEdges" width="293" height="29" x="0" y="0" style="stroke: rgb(68, 68, 68); stroke-opacity: 1; fill: rgb(255, 255, 255); fill-opacity: 1; stroke-width: 0px;"/><g class="scrollbox" transform="" clip-path="url(#legend0fbb05)"><g class="groups" transform=""><g class="traces" transform="translate(0,14.5)" style="opacity: 1;"><text class="legendtext" text-anchor="start" x="40" y="4.680000000000001" style="font-family: 'Open Sans', verdana, arial, sans-serif; font-size: 12px; fill: rgb(42, 63, 95); fill-opacity: 1; white-space: pre;">Calculated metric</text><g class="layers" style="opacity: 1;"><g class="legendfill"/><g class="legendlines"/><g class="legendsymbols"><g class="legendpoints"><path class="scatterpts" transform="translate(20,0)" d="M5.85,0L0,5.85L-5.85,0L0,-5.85Z" style="opacity: 0.85; stroke-width: 0.5px; fill: rgb(255, 0, 0); fill-opacity: 1; stroke: rgb(0, 0, 0); stroke-opacity: 1;"/></g></g></g><rect class="legendtoggle" x="0" y="-9.5" width="147.515625" height="19" style="fill: rgb(0, 0, 0); fill-opacity: 0;"/></g></g><g class="groups" transform="translate(150.015625,0)"><g class="traces" transform="translate(0,14.5)" style="opacity: 1;"><text class="legendtext" text-anchor="start" x="40" y="4.680000000000001" style="font-family: 'Open Sans', verdana, arial, sans-serif; font-size: 12px; fill: rgb(42, 63, 95); fill-opacity: 1; white-space: pre;">Reported metric</text><g class="layers" style="opacity: 1;"><g class="legendfill"/><g class="legendlines"/><g class="legendsymbols"><g class="legendpoints"><path class="scatterpts" transform="translate(20,0)" d="M4.5,0A4.5,4.5 0 1,1 0,-4.5A4.5,4.5 0 0,1 4.5,0Z" style="opacity: 0.85; stroke-width: 0.5px; fill: rgb(100, 149, 237); fill-opacity: 1; stroke: rgb(0, 0, 0); stroke-opacity: 1;"/></g></g></g><rect class="legendtoggle" x="0" y="-9.5" width="139.671875" height="19" style="fill: rgb(0, 0, 0); fill-opacity: 0;"/></g></g></g><rect class="scrollbar" rx="20" ry="3" width="0" height="0" x="0" y="0" style="fill: rgb(128, 139, 164); fill-opacity: 1;"/></g><g class="g-gtitle"/><g class="g-xtitle"><text class="xtitle" x="243.5" y="327.9" text-anchor="middle" style="opacity: 1; font-family: 'Open Sans', verdana, arial, sans-serif; font-size: 12px; fill: rgb(42, 63, 95); fill-opacity: 1; white-space: pre;">NDCG@10</text></g><g class="g-ytitle"><text class="ytitle" transform="rotate(-90,14.581249999999997,161)" x="14.581249999999997" y="161" text-anchor="middle" style="opacity: 1; font-family: 'Open Sans', verdana, arial, sans-serif; font-size: 12px; fill: rgb(42, 63, 95); fill-opacity: 1; white-space: pre;">Recall@10</text></g><g class="annotation" data-index="0" style="opacity: 1;"><g class="annotation-text-g" transform="rotate(0,121.07,232.35)"><g class="cursor-pointer" transform="translate(101,224)"><rect class="bg" x="0" y="0" width="40" height="17" style="stroke-width: 0px; stroke: rgb(0, 0, 0); stroke-opacity: 1; fill: rgb(255, 255, 255); fill-opacity: 0.8;"/><text class="annotation-text" text-anchor="middle" x="19.796875" y="13" style="font-family: 'Open Sans', verdana, arial, sans-serif; font-size: 12px; fill: rgb(105, 105, 105); fill-opacity: 1; white-space: pre;">S3Rec</text></g></g></g><g class="annotation" data-index="1" style="opacity: 1;"><g class="annotation-text-g" transform="rotate(0,229.47,140.59)"><g class="cursor-pointer" transform="translate(212,132)"><rect class="bg" x="0" y="0" width="34" height="17" style="stroke-width: 0px; stroke: rgb(0, 0, 0); stroke-opacity: 1; fill: rgb(255, 255, 255); fill-opacity: 0.8;"/><text class="annotation-text" text-anchor="middle" x="17.03125" y="13" style="font-family: 'Open Sans', verdana, arial, sans-serif; font-size: 12px; fill: rgb(105, 105, 105); fill-opacity: 1; white-space: pre;">LSAN</text></g></g></g><g class="annotation" data-index="2" style="opacity: 1;"><g class="annotation-text-g" transform="rotate(0,272.57,100.69)"><g class="cursor-pointer" transform="translate(249,92)"><rect class="bg" x="0" y="0" width="48" height="17" style="stroke-width: 0px; stroke: rgb(0, 0, 0); stroke-opacity: 1; fill: rgb(255, 255, 255); fill-opacity: 0.8;"/><text class="annotation-text" text-anchor="middle" x="23.9375" y="13" style="font-family: 'Open Sans', verdana, arial, sans-serif; font-size: 12px; fill: rgb(105, 105, 105); fill-opacity: 1; white-space: pre;">DuoRec</text></g></g></g><g class="annotation" data-index="3" style="opacity: 1;"><g class="annotation-text-g" transform="rotate(0,84.5,209.74)"><g class="cursor-pointer" transform="translate(57,201)"><rect class="bg" x="0" y="0" width="55" height="17" style="stroke-width: 0px; stroke: rgb(0, 0, 0); stroke-opacity: 1; fill: rgb(255, 255, 255); fill-opacity: 0.8;"/><text class="annotation-text" text-anchor="middle" x="27.328125" y="13" style="font-family: 'Open Sans', verdana, arial, sans-serif; font-size: 12px; fill: rgb(105, 105, 105); fill-opacity: 1; white-space: pre;">CL4SRec</text></g></g></g><g class="annotation" data-index="4" style="opacity: 1;"><g class="annotation-text-g" transform="rotate(0,195.51,231.68)"><g class="cursor-pointer" transform="translate(176,223)"><rect class="bg" x="0" y="0" width="40" height="17" style="stroke-width: 0px; stroke: rgb(0, 0, 0); stroke-opacity: 1; fill: rgb(255, 255, 255); fill-opacity: 0.8;"/><text class="annotation-text" text-anchor="middle" x="19.84375" y="13" style="font-family: 'Open Sans', verdana, arial, sans-serif; font-size: 12px; fill: rgb(105, 105, 105); fill-opacity: 1; white-space: pre;">TIGER</text></g></g></g><g class="annotation" data-index="5" style="opacity: 1;"><g class="annotation-text-g" transform="rotate(0,384.89,163.86)"><g class="cursor-pointer" transform="translate(361,155)"><rect class="bg" x="0" y="0" width="48" height="17" style="stroke-width: 0px; stroke: rgb(0, 0, 0); stroke-opacity: 1; fill: rgb(255, 255, 255); fill-opacity: 0.8;"/><text class="annotation-text" text-anchor="middle" x="24.0625" y="13" style="font-family: 'Open Sans', verdana, arial, sans-serif; font-size: 12px; fill: rgb(105, 105, 105); fill-opacity: 1; white-space: pre;">ELMRec</text></g></g></g><g class="annotation" data-index="6" style="opacity: 1;"><g class="annotation-text-g" transform="rotate(0,252.75,175.24)"><g class="cursor-pointer" transform="translate(218,167)"><rect class="bg" x="0" y="0" width="70" height="17" style="stroke-width: 0px; stroke: rgb(0, 0, 0); stroke-opacity: 1; fill: rgb(255, 255, 255); fill-opacity: 0.8;"/><text class="annotation-text" text-anchor="middle" x="35.21875" y="13" style="font-family: 'Open Sans', verdana, arial, sans-serif; font-size: 12px; fill: rgb(105, 105, 105); fill-opacity: 1; white-space: pre;">ActionPiece</text></g></g></g><g class="annotation" data-index="7" style="opacity: 1;"><g class="annotation-text-g" transform="rotate(0,392.5,83.15)"><g class="cursor-pointer" transform="translate(355,75)"><rect class="bg" x="0" y="0" width="75" height="17" style="stroke-width: 0px; stroke: rgb(0, 0, 0); stroke-opacity: 1; fill: rgb(255, 255, 255); fill-opacity: 0.8;"/><text class="annotation-text" text-anchor="middle" x="37.296875" y="13" style="font-family: 'Open Sans', verdana, arial, sans-serif; font-size: 12px; fill: rgb(105, 105, 105); fill-opacity: 1; white-space: pre;">SASRec+SS</text></g></g></g><g class="annotation" data-index="8" style="opacity: 1;"><g class="annotation-text-g" transform="rotate(0,372.05,38.5)"><g class="cursor-pointer" transform="translate(344,30)"><rect class="bg" x="0" y="0" width="56" height="17" style="stroke-width: 0px; stroke: rgb(0, 0, 0); stroke-opacity: 1; fill: rgb(255, 255, 255); fill-opacity: 0.8;"/><text class="annotation-text" text-anchor="middle" x="27.984375" y="13" style="font-family: 'Open Sans', verdana, arial, sans-serif; font-size: 12px; fill: rgb(105, 105, 105); fill-opacity: 1; white-space: pre;">uSASRec</text></g></g></g><g class="annotation" data-index="9" style="opacity: 1;"><g class="annotation-text-g" transform="rotate(0,109.31,260.28)"><g class="cursor-pointer" transform="translate(85,252)"><rect class="bg" x="0" y="0" width="48" height="17" style="stroke-width: 0px; stroke: rgb(0, 0, 0); stroke-opacity: 1; fill: rgb(255, 255, 255); fill-opacity: 0.8;"/><text class="annotation-text" text-anchor="middle" x="24.1875" y="13" style="font-family: 'Open Sans', verdana, arial, sans-serif; font-size: 12px; fill: rgb(105, 105, 105); fill-opacity: 1; white-space: pre;">SASRec</text></g></g></g><g class="annotation" data-index="10" style="opacity: 1;"><g class="annotation-text-g" transform="rotate(0,202.04,194.45)"><g class="cursor-pointer" transform="translate(185,186)"><rect class="bg" x="0" y="0" width="35" height="17" style="stroke-width: 0px; stroke: rgb(0, 0, 0); stroke-opacity: 1; fill: rgb(255, 255, 255); fill-opacity: 0.8;"/><text class="annotation-text" text-anchor="middle" x="17.703125" y="13" style="font-family: 'Open Sans', verdana, arial, sans-serif; font-size: 12px; fill: rgb(105, 105, 105); fill-opacity: 1; white-space: pre;">HSTU</text></g></g></g></g></svg>