<svg class="main-svg" xmlns="http://www.w3.org/2000/svg" xmlns:xlink="http://www.w3.org/1999/xlink" width="880" height="500" style="" viewBox="0 0 880 500"><rect x="0" y="0" width="880" height="500" style="fill: rgb(255, 255, 255); fill-opacity: 1;"/><defs id="defs-5f088a"><g class="clips"><clipPath id="clip5f088axyplot" class="plotclip"><rect width="388.075" height="307"/></clipPath><clipPath id="clip5f088ax2y2plot" class="plotclip"><rect width="388.075" height="307"/></clipPath><clipPath class="axesclip" id="clip5f088ax"><rect x="53" y="0" width="388.075" height="500"/></clipPath><clipPath class="axesclip" id="clip5f088ay"><rect x="0" y="30" width="880" height="307"/></clipPath><clipPath class="axesclip" id="clip5f088axy"><rect x="53" y="30" width="388.075" height="307"/></clipPath><clipPath class="axesclip" id="clip5f088ay2"><rect x="0" y="30" width="880" height="307"/></clipPath><clipPath class="axesclip" id="clip5f088axy2"><rect x="53" y="30" width="388.075" height="307"/></clipPath><clipPath class="axesclip" id="clip5f088ax2"><rect x="481.925" y="0" width="388.075" height="500"/></clipPath><clipPath class="axesclip" id="clip5f088ax2y"><rect x="481.925" y="30" width="388.075" height="307"/></clipPath><clipPath class="axesclip" id="clip5f088ax2y2"><rect x="481.925" y="30" width="388.075" height="307"/></clipPath></g><g class="gradients"/><g class="patterns"/></defs><g class="bglayer"/><g class="layer-below"><g class="imagelayer"/><g class="shapelayer"/></g><g class="cartesianlayer"><g class="subplot xy"><g class="layer-subplot"><g class="shapelayer"/><g class="imagelayer"/></g><g class="minor-gridlayer"><g class="x"/><g class="y"/></g><g class="gridlayer"><g class="x"><path class="xgrid crisp" transform="translate(81.94,0)" d="M0,30v307" style="stroke: rgb(235, 240, 248); stroke-opacity: 1; stroke-width: 1px;"/><path class="xgrid crisp" transform="translate(179.78,0)" d="M0,30v307" style="stroke: rgb(235, 240, 248); stroke-opacity: 1; stroke-width: 1px;"/><path class="xgrid crisp" transform="translate(277.61,0)" d="M0,30v307" style="stroke: rgb(235, 240, 248); stroke-opacity: 1; stroke-width: 1px;"/><path class="xgrid crisp" transform="translate(375.45,0)" d="M0,30v307" style="stroke: rgb(235, 240, 248); stroke-opacity: 1; stroke-width: 1px;"/></g><g class="y"><path class="ygrid crisp" transform="translate(0,280.18)" d="M53,0h388.075" style="stroke: rgb(235, 240, 248); stroke-opacity: 1; stroke-width: 1px;"/><path class="ygrid crisp" transform="translate(0,227.85)" d="M53,0h388.075" style="stroke: rgb(235, 240, 248); stroke-opacity: 1; stroke-width: 1px;"/><path class="ygrid crisp" transform="translate(0,175.52)" d="M53,0h388.075" style="stroke: rgb(235, 240, 248); stroke-opacity: 1; stroke-width: 1px;"/><path class="ygrid crisp" transform="translate(0,123.19)" d="M53,0h388.075" style="stroke: rgb(235, 240, 248); stroke-opacity: 1; stroke-width: 1px;"/><path class="ygrid crisp" transform="translate(0,70.86)" d="M53,0h388.075" style="stroke: rgb(235, 240, 248); stroke-opacity: 1; stroke-width: 1px;"/></g></g><g class="zerolinelayer"><path class="yzl zl crisp" transform="translate(0,332.51)" d="M53,0h388.075" style="stroke: rgb(235, 240, 248); stroke-opacity: 1; stroke-width: 2px;"/></g><g class="layer-between"><g class="shapelayer"/><g class="imagelayer"/></g><path class="xlines-below"/><path class="ylines-below"/><g class="overlines-below"/><g class="xaxislayer-below"/><g class="yaxislayer-below"/><g class="overaxes-below"/><g class="overplot"><g class="xy" transform="translate(53,30)" clip-path="url(#clip5f088axyplot)"><g class="scatterlayer mlayer"><g class="trace scatter tracef7ed84" style="stroke-miterlimit: 2; opacity: 1;"><g class="fills"/><g class="errorbars"/><g class="lines"/><g class="points"><path class="point" transform="translate(25.03,85.6)" d="M4.5,0A4.5,4.5 0 1,1 0,-4.5A4.5,4.5 0 0,1 4.5,0Z" style="opacity: 0.85; stroke-width: 0.5px; fill: rgb(128, 128, 128); fill-opacity: 1; stroke: rgb(0, 0, 0); stroke-opacity: 1;"/><path class="point" transform="translate(357.67,162.53)" d="M4.5,0A4.5,4.5 0 1,1 0,-4.5A4.5,4.5 0 0,1 4.5,0Z" style="opacity: 0.85; stroke-width: 0.5px; fill: rgb(128, 128, 128); fill-opacity: 1; stroke: rgb(0, 0, 0); stroke-opacity: 1;"/><path class="point" transform="translate(363.05,168.28)" d="M4.5,0A4.5,4.5 0 1,1 0,-4.5A4.5,4.5 0 0,1 4.5,0Z" style="opacity: 0.85; stroke-width: 0.5px; fill: rgb(128, 128, 128); fill-opacity: 1; stroke: rgb(0, 0, 0); stroke-opacity: 1;"/><path class="point" transform="translate(188.9,63.62)" d="M4.5,0A4.5,4.5 0 1,1 0,-4.5A4.5,4.5 0 0,1 4.5,0Z" style="opacity: 0.85; stroke-width: 0.5px; fill: rgb(128, 128, 128); fill-opacity: 1; stroke: rgb(0, 0, 0); stroke-opacity: 1;"/><path class="point" transform="translate(206.51,69.9)" d="M4.5,0A4.5,4.5 0 1,1 0,-4.5A4.5,4.5 0 0,1 4.5,0Z" style="opacity: 0.85; stroke-width: 0.5px; fill: rgb(128, 128, 128); fill-opacity: 1; stroke: rgb(0, 0, 0); stroke-opacity: 1;"/><path class="point" transform="translate(165.42,28.04)" d="M4.5,0A4.5,4.5 0 1,1 0,-4.5A4.5,4.5 0 0,1 4.5,0Z" style="opacity: 0.85; stroke-width: 0.5px; fill: rgb(128, 128, 128); fill-opacity: 1; stroke: rgb(0, 0, 0); stroke-opacity: 1;"/><path class="point" transform="translate(159.06,41.38)" d="M5.85,0L0,5.85L-5.85,0L0,-5.85Z" style="opacity: 0.85; stroke-width: 0.5px; fill: rgb(0, 128, 0); fill-opacity: 1; stroke: rgb(0, 0, 0); stroke-opacity: 1;"/><path class="point" transform="translate(144.88,33.27)" d="M5.85,0L0,5.85L-5.85,0L0,-5.85Z" style="opacity: 0.85; stroke-width: 0.5px; fill: rgb(0, 128, 0); fill-opacity: 1; stroke: rgb(0, 0, 0); stroke-opacity: 1;"/><path class="point" transform="translate(52.42,20.98)" d="M5.85,0L0,5.85L-5.85,0L0,-5.85Z" style="opacity: 0.85; stroke-width: 0.5px; fill: rgb(0, 128, 0); fill-opacity: 1; stroke: rgb(0, 0, 0); stroke-opacity: 1;"/><path class="point" transform="translate(55.36,23.33)" d="M5.85,0L0,5.85L-5.85,0L0,-5.85Z" style="opacity: 0.85; stroke-width: 0.5px; fill: rgb(0, 128, 0); fill-opacity: 1; stroke: rgb(0, 0, 0); stroke-opacity: 1;"/><path class="point" transform="translate(194.77,145.26)" d="M5.85,0L0,5.85L-5.85,0L0,-5.85Z" style="opacity: 0.85; stroke-width: 0.5px; fill: rgb(255, 165, 0); fill-opacity: 1; stroke: rgb(0, 0, 0); stroke-opacity: 1;"/><path class="point" transform="translate(127.75,135.84)" d="M5.85,0L0,5.85L-5.85,0L0,-5.85Z" style="opacity: 0.85; stroke-width: 0.5px; fill: rgb(255, 165, 0); fill-opacity: 1; stroke: rgb(0, 0, 0); stroke-opacity: 1;"/><path class="point" transform="translate(106.23,148.4)" d="M5.85,0L0,5.85L-5.85,0L0,-5.85Z" style="opacity: 0.85; stroke-width: 0.5px; fill: rgb(255, 165, 0); fill-opacity: 1; stroke: rgb(0, 0, 0); stroke-opacity: 1;"/><path class="point" transform="translate(148.3,137.41)" d="M5.85,0L0,5.85L-5.85,0L0,-5.85Z" style="opacity: 0.85; stroke-width: 0.5px; fill: rgb(255, 165, 0); fill-opacity: 1; stroke: rgb(0, 0, 0); stroke-opacity: 1;"/><path class="point" transform="translate(257.87,130.61)" d="M4.5,0A4.5,4.5 0 1,1 0,-4.5A4.5,4.5 0 0,1 4.5,0Z" style="opacity: 0.85; stroke-width: 0.5px; fill: rgb(128, 128, 128); fill-opacity: 1; stroke: rgb(0, 0, 0); stroke-opacity: 1;"/><path class="point" transform="translate(166.4,286.03)" d="M4.5,0A4.5,4.5 0 1,1 0,-4.5A4.5,4.5 0 0,1 4.5,0Z" style="opacity: 0.85; stroke-width: 0.5px; fill: rgb(128, 128, 128); fill-opacity: 1; stroke: rgb(0, 0, 0); stroke-opacity: 1;"/><path class="point" transform="translate(113.57,216.43)" d="M4.5,0A4.5,4.5 0 1,1 0,-4.5A4.5,4.5 0 0,1 4.5,0Z" style="opacity: 0.85; stroke-width: 0.5px; fill: rgb(128, 128, 128); fill-opacity: 1; stroke: rgb(0, 0, 0); stroke-opacity: 1;"/><path class="point" transform="translate(109.17,91.1)" d="M4.5,0A4.5,4.5 0 1,1 0,-4.5A4.5,4.5 0 0,1 4.5,0Z" style="opacity: 0.85; stroke-width: 0.5px; fill: rgb(128, 128, 128); fill-opacity: 1; stroke: rgb(0, 0, 0); stroke-opacity: 1;"/><path class="point" transform="translate(303.86,150.75)" d="M4.5,0A4.5,4.5 0 1,1 0,-4.5A4.5,4.5 0 0,1 4.5,0Z" style="opacity: 0.85; stroke-width: 0.5px; fill: rgb(128, 128, 128); fill-opacity: 1; stroke: rgb(0, 0, 0); stroke-opacity: 1;"/></g><g class="text"/></g><g class="trace scatter trace3367b4" style="stroke-miterlimit: 2; opacity: 1;"><g class="fills"/><g class="errorbars"/><g class="lines"><path class="js-line" d="M52.42,20.98L55.36,23.33L165.42,28.04L188.9,63.62L206.51,69.9L257.87,130.61L303.86,150.75L357.67,162.53L363.05,168.28" style="vector-effect: none; fill: none; stroke: rgb(100, 149, 237); stroke-opacity: 1; stroke-dasharray: 3px, 3px; stroke-width: 2px; opacity: 1;"/></g><g class="points"/><g class="text"/></g><g class="trace scatter trace075db6" style="stroke-miterlimit: 2; opacity: 1;"><g class="fills"/><g class="errorbars"/><g class="lines"/><g class="points"/><g class="text"/></g><g class="trace scatter tracee83acc" style="stroke-miterlimit: 2; opacity: 1;"><g class="fills"/><g class="errorbars"/><g class="lines"/><g class="points"/><g class="text"/></g><g class="trace scatter trace39b283" style="stroke-miterlimit: 2; opacity: 1;"><g class="fills"/><g class="errorbars"/><g class="lines"/><g class="points"/><g class="text"/></g><g class="trace scatter trace4e95f8" style="stroke-miterlimit: 2; opacity: 1;"><g class="fills"/><g class="errorbars"/><g class="lines"/><g class="points"/><g class="text"/></g><g class="trace scatter trace21c2a3" style="stroke-miterlimit: 2; opacity: 1;"><g class="fills"/><g class="errorbars"/><g class="lines"/><g class="points"/><g class="text"/></g><g class="trace scatter traceb36242" style="stroke-miterlimit: 2; opacity: 1;"><g class="fills"/><g class="errorbars"/><g class="lines"/><g class="points"/><g class="text"/></g><g class="trace scatter trace3a3db3" style="stroke-miterlimit: 2; opacity: 1;"><g class="fills"/><g class="errorbars"/><g class="lines"/><g class="points"/><g class="text"/></g><g class="trace scatter tracef7a0c6" style="stroke-miterlimit: 2; opacity: 1;"><g class="fills"/><g class="errorbars"/><g class="lines"/><g class="points"/><g class="text"/></g><g class="trace scatter traceac9ef5" style="stroke-miterlimit: 2; opacity: 1;"><g class="fills"/><g class="errorbars"/><g class="lines"/><g class="points"/><g class="text"/></g></g></g></g><path class="xlines-above crisp" d="M0,0" style="fill: none;"/><path class="ylines-above crisp" d="M0,0" style="fill: none;"/><g class="overlines-above"/><g class="xaxislayer-above"><g class="xtick"><text text-anchor="middle" x="0" y="346" transform="translate(81.94,0)" style="font-family: 'Open Sans', verdana, arial, sans-serif; font-size: 8px; fill: rgb(42, 63, 95); fill-opacity: 1; white-space: pre; opacity: 1;">0.12</text></g><g class="xtick"><text text-anchor="middle" x="0" y="346" style="font-family: 'Open Sans', verdana, arial, sans-serif; font-size: 8px; fill: rgb(42, 63, 95); fill-opacity: 1; white-space: pre; opacity: 1;" transform="translate(179.78,0)">0.14</text></g><g class="xtick"><text text-anchor="middle" x="0" y="346" style="font-family: 'Open Sans', verdana, arial, sans-serif; font-size: 8px; fill: rgb(42, 63, 95); fill-opacity: 1; white-space: pre; opacity: 1;" transform="translate(277.61,0)">0.16</text></g><g class="xtick"><text text-anchor="middle" x="0" y="346" style="font-family: 'Open Sans', verdana, arial, sans-serif; font-size: 8px; fill: rgb(42, 63, 95); fill-opacity: 1; white-space: pre; opacity: 1;" transform="translate(375.45,0)">0.18</text></g></g><g class="yaxislayer-above"><g class="ytick"><text text-anchor="end" x="52" y="2.8" transform="translate(0,332.51)" style="font-family: 'Open Sans', verdana, arial, sans-serif; font-size: 8px; fill: rgb(42, 63, 95); fill-opacity: 1; white-space: pre; opacity: 1;">0</text></g><g class="ytick"><text text-anchor="end" x="52" y="2.8" style="font-family: 'Open Sans', verdana, arial, sans-serif; font-size: 8px; fill: rgb(42, 63, 95); fill-opacity: 1; white-space: pre; opacity: 1;" transform="translate(0,280.18)">0.02</text></g><g class="ytick"><text text-anchor="end" x="52" y="2.8" style="font-family: 'Open Sans', verdana, arial, sans-serif; font-size: 8px; fill: rgb(42, 63, 95); fill-opacity: 1; white-space: pre; opacity: 1;" transform="translate(0,227.85)">0.04</text></g><g class="ytick"><text text-anchor="end" x="52" y="2.8" style="font-family: 'Open Sans', verdana, arial, sans-serif; font-size: 8px; fill: rgb(42, 63, 95); fill-opacity: 1; white-space: pre; opacity: 1;" transform="translate(0,175.52)">0.06</text></g><g class="ytick"><text text-anchor="end" x="52" y="2.8" style="font-family: 'Open Sans', verdana, arial, sans-serif; font-size: 8px; fill: rgb(42, 63, 95); fill-opacity: 1; white-space: pre; opacity: 1;" transform="translate(0,123.19)">0.08</text></g><g class="ytick"><text text-anchor="end" x="52" y="2.8" style="font-family: 'Open Sans', verdana, arial, sans-serif; font-size: 8px; fill: rgb(42, 63, 95); fill-opacity: 1; white-space: pre; opacity: 1;" transform="translate(0,70.86)">0.1</text></g></g><g class="overaxes-above"/></g><g class="subplot x2y2"><g class="layer-subplot"><g class="shapelayer"/><g class="imagelayer"/></g><g class="minor-gridlayer"><g class="x2"/><g class="y2"/></g><g class="gridlayer"><g class="x2"><path class="x2grid crisp" transform="translate(518.155,0)" d="M0,30v307" style="stroke: rgb(235, 240, 248); stroke-opacity: 1; stroke-width: 1px;"/><path class="x2grid crisp" transform="translate(620.0350000000001,0)" d="M0,30v307" style="stroke: rgb(235, 240, 248); stroke-opacity: 1; stroke-width: 1px;"/><path class="x2grid crisp" transform="translate(721.905,0)" d="M0,30v307" style="stroke: rgb(235, 240, 248); stroke-opacity: 1; stroke-width: 1px;"/><path class="x2grid crisp" transform="translate(823.7850000000001,0)" d="M0,30v307" style="stroke: rgb(235, 240, 248); stroke-opacity: 1; stroke-width: 1px;"/></g><g class="y2"><path class="y2grid crisp" transform="translate(0,295.66)" d="M481.925,0h388.075" style="stroke: rgb(235, 240, 248); stroke-opacity: 1; stroke-width: 1px;"/><path class="y2grid crisp" transform="translate(0,251.59)" d="M481.925,0h388.075" style="stroke: rgb(235, 240, 248); stroke-opacity: 1; stroke-width: 1px;"/><path class="y2grid crisp" transform="translate(0,207.52)" d="M481.925,0h388.075" style="stroke: rgb(235, 240, 248); stroke-opacity: 1; stroke-width: 1px;"/><path class="y2grid crisp" transform="translate(0,163.45)" d="M481.925,0h388.075" style="stroke: rgb(235, 240, 248); stroke-opacity: 1; stroke-width: 1px;"/><path class="y2grid crisp" transform="translate(0,119.38)" d="M481.925,0h388.075" style="stroke: rgb(235, 240, 248); stroke-opacity: 1; stroke-width: 1px;"/><path class="y2grid crisp" transform="translate(0,75.3)" d="M481.925,0h388.075" style="stroke: rgb(235, 240, 248); stroke-opacity: 1; stroke-width: 1px;"/><path class="y2grid crisp" transform="translate(0,31.23)" d="M481.925,0h388.075" style="stroke: rgb(235, 240, 248); stroke-opacity: 1; stroke-width: 1px;"/></g></g><g class="zerolinelayer"/><g class="layer-between"><g class="shapelayer"/><g class="imagelayer"/></g><path class="xlines-below"/><path class="ylines-below"/><g class="overlines-below"/><g class="xaxislayer-below"/><g class="yaxislayer-below"/><g class="overaxes-below"/><g class="overplot"><g class="x2y2" transform="translate(481.925,30)" clip-path="url(#clip5f088ax2y2plot)"><g class="scatterlayer mlayer"><g class="trace scatter trace525b89" style="stroke-miterlimit: 2; opacity: 1;"><g class="fills"/><g class="errorbars"/><g class="lines"/><g class="points"><path class="point" transform="translate(278.69,185.8)" d="M4.5,0A4.5,4.5 0 1,1 0,-4.5A4.5,4.5 0 0,1 4.5,0Z" style="opacity: 0.85; stroke-width: 0.5px; fill: rgb(128, 128, 128); fill-opacity: 1; stroke: rgb(0, 0, 0); stroke-opacity: 1;"/><path class="point" transform="translate(25.03,254.2)" d="M4.5,0A4.5,4.5 0 1,1 0,-4.5A4.5,4.5 0 0,1 4.5,0Z" style="opacity: 0.85; stroke-width: 0.5px; fill: rgb(128, 128, 128); fill-opacity: 1; stroke: rgb(0, 0, 0); stroke-opacity: 1;"/><path class="point" transform="translate(298.05,89.11)" d="M4.5,0A4.5,4.5 0 1,1 0,-4.5A4.5,4.5 0 0,1 4.5,0Z" style="opacity: 0.85; stroke-width: 0.5px; fill: rgb(128, 128, 128); fill-opacity: 1; stroke: rgb(0, 0, 0); stroke-opacity: 1;"/><path class="point" transform="translate(194.14,50.24)" d="M5.85,0L0,5.85L-5.85,0L0,-5.85Z" style="opacity: 0.85; stroke-width: 0.5px; fill: rgb(0, 128, 0); fill-opacity: 1; stroke: rgb(0, 0, 0); stroke-opacity: 1;"/><path class="point" transform="translate(238.96,286.02)" d="M5.85,0L0,5.85L-5.85,0L0,-5.85Z" style="opacity: 0.85; stroke-width: 0.5px; fill: rgb(255, 165, 0); fill-opacity: 1; stroke: rgb(0, 0, 0); stroke-opacity: 1;"/><path class="point" transform="translate(143.2,20.97)" d="M5.85,0L0,5.85L-5.85,0L0,-5.85Z" style="opacity: 0.85; stroke-width: 0.5px; fill: rgb(0, 128, 0); fill-opacity: 1; stroke: rgb(0, 0, 0); stroke-opacity: 1;"/><path class="point" transform="translate(254.24,261.87)" d="M5.85,0L0,5.85L-5.85,0L0,-5.85Z" style="opacity: 0.85; stroke-width: 0.5px; fill: rgb(255, 165, 0); fill-opacity: 1; stroke: rgb(0, 0, 0); stroke-opacity: 1;"/><path class="point" transform="translate(261.38,246.45)" d="M5.85,0L0,5.85L-5.85,0L0,-5.85Z" style="opacity: 0.85; stroke-width: 0.5px; fill: rgb(255, 165, 0); fill-opacity: 1; stroke: rgb(0, 0, 0); stroke-opacity: 1;"/><path class="point" transform="translate(267.49,228.73)" d="M5.85,0L0,5.85L-5.85,0L0,-5.85Z" style="opacity: 0.85; stroke-width: 0.5px; fill: rgb(255, 165, 0); fill-opacity: 1; stroke: rgb(0, 0, 0); stroke-opacity: 1;"/><path class="point" transform="translate(326.58,143.94)" d="M4.5,0A4.5,4.5 0 1,1 0,-4.5A4.5,4.5 0 0,1 4.5,0Z" style="opacity: 0.85; stroke-width: 0.5px; fill: rgb(128, 128, 128); fill-opacity: 1; stroke: rgb(0, 0, 0); stroke-opacity: 1;"/><path class="point" transform="translate(135.05,284.61)" d="M4.5,0A4.5,4.5 0 1,1 0,-4.5A4.5,4.5 0 0,1 4.5,0Z" style="opacity: 0.85; stroke-width: 0.5px; fill: rgb(128, 128, 128); fill-opacity: 1; stroke: rgb(0, 0, 0); stroke-opacity: 1;"/><path class="point" transform="translate(277.66,227.59)" d="M4.5,0A4.5,4.5 0 1,1 0,-4.5A4.5,4.5 0 0,1 4.5,0Z" style="opacity: 0.85; stroke-width: 0.5px; fill: rgb(128, 128, 128); fill-opacity: 1; stroke: rgb(0, 0, 0); stroke-opacity: 1;"/><path class="point" transform="translate(175.04,223.94)" d="M4.5,0A4.5,4.5 0 1,1 0,-4.5A4.5,4.5 0 0,1 4.5,0Z" style="opacity: 0.85; stroke-width: 0.5px; fill: rgb(128, 128, 128); fill-opacity: 1; stroke: rgb(0, 0, 0); stroke-opacity: 1;"/><path class="point" transform="translate(311.09,214.81)" d="M4.5,0A4.5,4.5 0 1,1 0,-4.5A4.5,4.5 0 0,1 4.5,0Z" style="opacity: 0.85; stroke-width: 0.5px; fill: rgb(128, 128, 128); fill-opacity: 1; stroke: rgb(0, 0, 0); stroke-opacity: 1;"/><path class="point" transform="translate(238.09,237.06)" d="M4.5,0A4.5,4.5 0 1,1 0,-4.5A4.5,4.5 0 0,1 4.5,0Z" style="opacity: 0.85; stroke-width: 0.5px; fill: rgb(128, 128, 128); fill-opacity: 1; stroke: rgb(0, 0, 0); stroke-opacity: 1;"/><path class="point" transform="translate(287.86,149.4)" d="M4.5,0A4.5,4.5 0 1,1 0,-4.5A4.5,4.5 0 0,1 4.5,0Z" style="opacity: 0.85; stroke-width: 0.5px; fill: rgb(128, 128, 128); fill-opacity: 1; stroke: rgb(0, 0, 0); stroke-opacity: 1;"/><path class="point" transform="translate(335.74,167.82)" d="M4.5,0A4.5,4.5 0 1,1 0,-4.5A4.5,4.5 0 0,1 4.5,0Z" style="opacity: 0.85; stroke-width: 0.5px; fill: rgb(128, 128, 128); fill-opacity: 1; stroke: rgb(0, 0, 0); stroke-opacity: 1;"/></g><g class="text"/></g><g class="trace scatter traced82ca1" style="stroke-miterlimit: 2; opacity: 1;"><g class="fills"/><g class="errorbars"/><g class="lines"><path class="js-line" d="M143.2,20.97L194.14,50.24L298.05,89.11L326.58,143.94L335.74,167.82" style="vector-effect: none; fill: none; stroke: rgb(100, 149, 237); stroke-opacity: 1; stroke-dasharray: 3px, 3px; stroke-width: 2px; opacity: 1;"/></g><g class="points"/><g class="text"/></g></g></g></g><path class="xlines-above crisp" d="M0,0" style="fill: none;"/><path class="ylines-above crisp" d="M0,0" style="fill: none;"/><g class="overlines-above"/><g class="xaxislayer-above"><g class="x2tick"><text text-anchor="middle" x="0" y="346" transform="translate(518.155,0)" style="font-family: 'Open Sans', verdana, arial, sans-serif; font-size: 8px; fill: rgb(42, 63, 95); fill-opacity: 1; white-space: pre; opacity: 1;">0.14</text></g><g class="x2tick"><text text-anchor="middle" x="0" y="346" style="font-family: 'Open Sans', verdana, arial, sans-serif; font-size: 8px; fill: rgb(42, 63, 95); fill-opacity: 1; white-space: pre; opacity: 1;" transform="translate(620.0350000000001,0)">0.15</text></g><g class="x2tick"><text text-anchor="middle" x="0" y="346" style="font-family: 'Open Sans', verdana, arial, sans-serif; font-size: 8px; fill: rgb(42, 63, 95); fill-opacity: 1; white-space: pre; opacity: 1;" transform="translate(721.905,0)">0.16</text></g><g class="x2tick"><text text-anchor="middle" x="0" y="346" style="font-family: 'Open Sans', verdana, arial, sans-serif; font-size: 8px; fill: rgb(42, 63, 95); fill-opacity: 1; white-space: pre; opacity: 1;" transform="translate(823.7850000000001,0)">0.17</text></g></g><g class="yaxislayer-above"><g class="y2tick"><text text-anchor="end" x="480.925" y="2.8" transform="translate(0,295.66)" style="font-family: 'Open Sans', verdana, arial, sans-serif; font-size: 8px; fill: rgb(42, 63, 95); fill-opacity: 1; white-space: pre; opacity: 1;">0.1</text></g><g class="y2tick"><text text-anchor="end" x="480.925" y="2.8" style="font-family: 'Open Sans', verdana, arial, sans-serif; font-size: 8px; fill: rgb(42, 63, 95); fill-opacity: 1; white-space: pre; opacity: 1;" transform="translate(0,251.59)">0.15</text></g><g class="y2tick"><text text-anchor="end" x="480.925" y="2.8" style="font-family: 'Open Sans', verdana, arial, sans-serif; font-size: 8px; fill: rgb(42, 63, 95); fill-opacity: 1; white-space: pre; opacity: 1;" transform="translate(0,207.52)">0.2</text></g><g class="y2tick"><text text-anchor="end" x="480.925" y="2.8" style="font-family: 'Open Sans', verdana, arial, sans-serif; font-size: 8px; fill: rgb(42, 63, 95); fill-opacity: 1; white-space: pre; opacity: 1;" transform="translate(0,163.45)">0.25</text></g><g class="y2tick"><text text-anchor="end" x="480.925" y="2.8" style="font-family: 'Open Sans', verdana, arial, sans-serif; font-size: 8px; fill: rgb(42, 63, 95); fill-opacity: 1; white-space: pre; opacity: 1;" transform="translate(0,119.38)">0.3</text></g><g class="y2tick"><text text-anchor="end" x="480.925" y="2.8" style="font-family: 'Open Sans', verdana, arial, sans-serif; font-size: 8px; fill: rgb(42, 63, 95); fill-opacity: 1; white-space: pre; opacity: 1;" transform="translate(0,75.3)">0.35</text></g><g class="y2tick"><text text-anchor="end" x="480.925" y="2.8" style="font-family: 'Open Sans', verdana, arial, sans-serif; font-size: 8px; fill: rgb(42, 63, 95); fill-opacity: 1; white-space: pre; opacity: 1;" transform="translate(0,31.23)">0.4</text></g></g><g class="overaxes-above"/></g></g><g class="polarlayer"/><g class="smithlayer"/><g class="ternarylayer"/><g class="geolayer"/><g class="funnelarealayer"/><g class="pielayer"/><g class="iciclelayer"/><g class="treemaplayer"/><g class="sunburstlayer"/><g class="glimages"/><defs id="topdefs-5f088a"><g class="clips"/><clipPath id="legend5f088a"><rect width="709" height="106" x="0" y="0"/></clipPath></defs><g class="layer-above"><g class="imagelayer"/><g class="shapelayer"/></g><g class="infolayer"><g class="legend" pointer-events="all" transform="translate(53,384.5)"><rect class="bg" shape-rendering="crispEdges" width="709" height="106" x="0" y="0" style="stroke: rgb(68, 68, 68); stroke-opacity: 1; fill: rgb(255, 255, 255); fill-opacity: 1; stroke-width: 0px;"/><g class="scrollbox" transform="" clip-path="url(#legend5f088a)"><g class="groups" transform=""><g class="traces" transform="translate(0,14.950000000000001)" style="opacity: 1;"><text class="legendtext" text-anchor="start" x="5" y="5.07" style="font-family: 'Open Sans', verdana, arial, sans-serif; font-size: 13px; fill: rgb(42, 63, 95); fill-opacity: 1; white-space: pre;">Negative Sampling for SASRec+L+SS:</text><g class="layers"><g class="legendfill"/><g class="legendlines"/><g class="legendsymbols"><g class="legendpoints"/></g></g><rect class="legendtoggle" x="0" y="-9.950000000000001" width="265.03125" height="19.900000000000002" style="fill: rgb(0, 0, 0); fill-opacity: 0;"/></g><g class="traces" transform="translate(0,34.400000000000006)" style="opacity: 1;"><text class="legendtext" text-anchor="start" x="40" y="3.9" style="font-family: 'Open Sans', verdana, arial, sans-serif; font-size: 10px; fill: rgb(42, 63, 95); fill-opacity: 1; white-space: pre;">Mixed Sampling (multiple ratios)</text><g class="layers" style="opacity: 1;"><g class="legendfill"/><g class="legendlines"/><g class="legendsymbols"><g class="legendpoints"><path class="scatterpts" transform="translate(20,0)" d="M5.85,0L0,5.85L-5.85,0L0,-5.85Z" style="opacity: 0.85; stroke-width: 0.5px; fill: rgb(0, 128, 0); fill-opacity: 1; stroke: rgb(0, 0, 0); stroke-opacity: 1;"/></g></g></g><rect class="legendtoggle" x="0" y="-9.5" width="265.03125" height="19" style="fill: rgb(0, 0, 0); fill-opacity: 0;"/></g><g class="traces" transform="translate(0,53.400000000000006)" style="opacity: 1;"><text class="legendtext" text-anchor="start" x="40" y="3.9" style="font-family: 'Open Sans', verdana, arial, sans-serif; font-size: 10px; fill: rgb(42, 63, 95); fill-opacity: 1; white-space: pre;">Mixed Sampling (multiple ratios) with LogQ</text><g class="layers" style="opacity: 1;"><g class="legendfill"/><g class="legendlines"/><g class="legendsymbols"><g class="legendpoints"><path class="scatterpts" transform="translate(20,0)" d="M5.85,0L0,5.85L-5.85,0L0,-5.85Z" style="opacity: 0.85; stroke-width: 0.5px; fill: rgb(255, 165, 0); fill-opacity: 1; stroke: rgb(0, 0, 0); stroke-opacity: 1;"/></g></g></g><rect class="legendtoggle" x="0" y="-9.5" width="265.03125" height="19" style="fill: rgb(0, 0, 0); fill-opacity: 0;"/></g></g><g class="groups" transform="translate(267.53125,0)"><g class="traces" transform="translate(0,14.950000000000001)" style="opacity: 1;"><text class="legendtext" text-anchor="start" x="5" y="5.07" style="font-family: 'Open Sans', verdana, arial, sans-serif; font-size: 13px; fill: rgb(42, 63, 95); fill-opacity: 1; white-space: pre;">       Abbreviations:</text><g class="layers"><g class="legendfill"/><g class="legendlines"/><g class="legendsymbols"><g class="legendpoints"/></g></g><rect class="legendtoggle" x="0" y="-9.950000000000001" width="175.59375" height="19.900000000000002" style="fill: rgb(0, 0, 0); fill-opacity: 0;"/></g><g class="traces" transform="translate(0,34.400000000000006)" style="opacity: 1;"><text class="legendtext" text-anchor="start" x="40" y="3.9" style="font-family: 'Open Sans', verdana, arial, sans-serif; font-size: 10px; fill: rgb(42, 63, 95); fill-opacity: 1; white-space: pre;">"B4R" for BERT4Rec</text><g class="layers" style="opacity: 1;"><g class="legendfill"/><g class="legendlines"/><g class="legendsymbols"><g class="legendpoints"/></g></g><rect class="legendtoggle" x="0" y="-9.5" width="175.59375" height="19" style="fill: rgb(0, 0, 0); fill-opacity: 0;"/></g><g class="traces" transform="translate(0,53.400000000000006)" style="opacity: 1;"><text class="legendtext" text-anchor="start" x="40" y="3.9" style="font-family: 'Open Sans', verdana, arial, sans-serif; font-size: 10px; fill: rgb(42, 63, 95); fill-opacity: 1; white-space: pre;">"DAA" for Dense All Action</text><g class="layers" style="opacity: 1;"><g class="legendfill"/><g class="legendlines"/><g class="legendsymbols"><g class="legendpoints"/></g></g><rect class="legendtoggle" x="0" y="-9.5" width="175.59375" height="19" style="fill: rgb(0, 0, 0); fill-opacity: 0;"/></g><g class="traces" transform="translate(0,72.4)" style="opacity: 1;"><text class="legendtext" text-anchor="start" x="40" y="3.9" style="font-family: 'Open Sans', verdana, arial, sans-serif; font-size: 10px; fill: rgb(42, 63, 95); fill-opacity: 1; white-space: pre;">"NA" for Next Action</text><g class="layers" style="opacity: 1;"><g class="legendfill"/><g class="legendlines"/><g class="legendsymbols"><g class="legendpoints"/></g></g><rect class="legendtoggle" x="0" y="-9.5" width="175.59375" height="19" style="fill: rgb(0, 0, 0); fill-opacity: 0;"/></g><g class="traces" transform="translate(0,91.4)" style="opacity: 1;"><text class="legendtext" text-anchor="start" x="40" y="3.9" style="font-family: 'Open Sans', verdana, arial, sans-serif; font-size: 10px; fill: rgb(42, 63, 95); fill-opacity: 1; white-space: pre;">"AA" for All Action</text><g class="layers" style="opacity: 1;"><g class="legendfill"/><g class="legendlines"/><g class="legendsymbols"><g class="legendpoints"/></g></g><rect class="legendtoggle" x="0" y="-9.5" width="175.59375" height="19" style="fill: rgb(0, 0, 0); fill-opacity: 0;"/></g></g><g class="groups" transform="translate(445.625,0)"><g class="traces" transform="translate(0,14.950000000000001)" style="opacity: 1;"><text class="legendtext" text-anchor="start" x="5" y="5.07" style="font-family: 'Open Sans', verdana, arial, sans-serif; font-size: 13px; fill: rgb(42, 63, 95); fill-opacity: 1; white-space: pre;">       </text><g class="layers"><g class="legendfill"/><g class="legendlines"/><g class="legendsymbols"><g class="legendpoints"/></g></g><rect class="legendtoggle" x="0" y="-9.950000000000001" width="260.015625" height="19.900000000000002" style="fill: rgb(0, 0, 0); fill-opacity: 0;"/></g><g class="traces" transform="translate(0,34.400000000000006)" style="opacity: 1;"><text class="legendtext" text-anchor="start" x="40" y="3.9" style="font-family: 'Open Sans', verdana, arial, sans-serif; font-size: 10px; fill: rgb(42, 63, 95); fill-opacity: 1; white-space: pre;">"+L" for LiGR Transformer layers</text><g class="layers" style="opacity: 1;"><g class="legendfill"/><g class="legendlines"/><g class="legendsymbols"><g class="legendpoints"/></g></g><rect class="legendtoggle" x="0" y="-9.5" width="260.015625" height="19" style="fill: rgb(0, 0, 0); fill-opacity: 0;"/></g><g class="traces" transform="translate(0,53.400000000000006)" style="opacity: 1;"><text class="legendtext" text-anchor="start" x="40" y="3.9" style="font-family: 'Open Sans', verdana, arial, sans-serif; font-size: 10px; fill: rgb(42, 63, 95); fill-opacity: 1; white-space: pre;">"+SS" for sampled softmax loss</text><g class="layers" style="opacity: 1;"><g class="legendfill"/><g class="legendlines"/><g class="legendsymbols"><g class="legendpoints"/></g></g><rect class="legendtoggle" x="0" y="-9.5" width="260.015625" height="19" style="fill: rgb(0, 0, 0); fill-opacity: 0;"/></g><g class="traces" transform="translate(0,72.4)" style="opacity: 1;"><text class="legendtext" text-anchor="start" x="40" y="3.9" style="font-family: 'Open Sans', verdana, arial, sans-serif; font-size: 10px; fill: rgb(42, 63, 95); fill-opacity: 1; white-space: pre;">"+gB" for gBCE loss with 0.75 temperature</text><g class="layers" style="opacity: 1;"><g class="legendfill"/><g class="legendlines"/><g class="legendsymbols"><g class="legendpoints"/></g></g><rect class="legendtoggle" x="0" y="-9.5" width="260.015625" height="19" style="fill: rgb(0, 0, 0); fill-opacity: 0;"/></g></g></g><rect class="scrollbar" rx="20" ry="3" width="0" height="0" x="0" y="0" style="fill: rgb(128, 139, 164); fill-opacity: 1;"/></g><g class="g-gtitle"/><g class="g-xtitle"><text class="xtitle" x="247.0375" y="370.4" text-anchor="middle" style="opacity: 1; font-family: 'Open Sans', verdana, arial, sans-serif; font-size: 12px; fill: rgb(42, 63, 95); fill-opacity: 1; white-space: pre;">NDCG@10</text></g><g class="g-x2title"><text class="x2title" x="675.9625" y="370.4" text-anchor="middle" style="opacity: 1; font-family: 'Open Sans', verdana, arial, sans-serif; font-size: 12px; fill: rgb(42, 63, 95); fill-opacity: 1; white-space: pre;">NDCG@10</text></g><g class="g-ytitle"><text class="ytitle" transform="rotate(-90,15.128124999999997,183.5)" x="15.128124999999997" y="183.5" text-anchor="middle" style="opacity: 1; font-family: 'Open Sans', verdana, arial, sans-serif; font-size: 12px; fill: rgb(42, 63, 95); fill-opacity: 1; white-space: pre;">Coverage@10</text></g><g class="g-y2title"/><g class="annotation" data-index="0" style="opacity: 1;"><g class="annotation-text-g" transform="rotate(0,247.0375,20.5)"><g class="cursor-pointer" transform="translate(204,11)"><rect class="bg" x="0.5" y="0.5" width="86" height="18" style="stroke-width: 1px; stroke: rgb(0, 0, 0); stroke-opacity: 0; fill: rgb(0, 0, 0); fill-opacity: 0;"/><text class="annotation-text" text-anchor="middle" x="43.171875" y="14" style="font-family: 'Open Sans', verdana, arial, sans-serif; font-size: 12px; fill: rgb(42, 63, 95); fill-opacity: 1; white-space: pre;"><tspan style="font-weight:bold">ML-20M-Unf</tspan></text></g></g></g><g class="annotation" data-index="1" style="opacity: 1;"><g class="annotation-text-g" transform="rotate(0,675.9625,20.5)"><g class="cursor-pointer" transform="translate(651,11)"><rect class="bg" x="0.5" y="0.5" width="48" height="18" style="stroke-width: 1px; stroke: rgb(0, 0, 0); stroke-opacity: 0; fill: rgb(0, 0, 0); fill-opacity: 0;"/><text class="annotation-text" text-anchor="middle" x="24.65625" y="14" style="font-family: 'Open Sans', verdana, arial, sans-serif; font-size: 12px; fill: rgb(42, 63, 95); fill-opacity: 1; white-space: pre;"><tspan style="font-weight:bold">Kion-R</tspan></text></g></g></g><g class="annotation" data-index="2" style="opacity: 1;"><g class="annotation-text-g" transform="rotate(0,271.51,112.9)"><g class="cursor-pointer" transform="translate(223,104)"><rect class="bg" x="0" y="0" width="98" height="17" style="stroke-width: 0px; stroke: rgb(0, 0, 0); stroke-opacity: 1; fill: rgb(255, 255, 255); fill-opacity: 0.8;"/><text class="annotation-text" text-anchor="middle" x="49.15625" y="13" style="font-family: 'Open Sans', verdana, arial, sans-serif; font-size: 12px; fill: rgb(0, 0, 0); fill-opacity: 1; white-space: pre;"><tspan style="font-weight:bold">SASRec+L+SS</tspan></text></g></g></g><g class="annotation" data-index="3" style="opacity: 1;"><g class="annotation-text-g" transform="rotate(0,259.9,80.62)"><g class="cursor-pointer" transform="translate(222,72)"><rect class="bg" x="0" y="0" width="75" height="17" style="stroke-width: 0px; stroke: rgb(0, 0, 0); stroke-opacity: 1; fill: rgb(255, 255, 255); fill-opacity: 0.8;"/><text class="annotation-text" text-anchor="middle" x="37.296875" y="13" style="font-family: 'Open Sans', verdana, arial, sans-serif; font-size: 12px; fill: rgb(105, 105, 105); fill-opacity: 1; white-space: pre;">SASRec+SS</text></g></g></g><g class="annotation" data-index="4" style="opacity: 1;"><g class="annotation-text-g" transform="rotate(0,78.03,102.6)"><g class="cursor-pointer" transform="translate(54,94)"><rect class="bg" x="0" y="0" width="48" height="17" style="stroke-width: 0px; stroke: rgb(0, 0, 0); stroke-opacity: 1; fill: rgb(255, 255, 255); fill-opacity: 0.8;"/><text class="annotation-text" text-anchor="middle" x="24.1875" y="13" style="font-family: 'Open Sans', verdana, arial, sans-serif; font-size: 12px; fill: rgb(105, 105, 105); fill-opacity: 1; white-space: pre;">SASRec</text></g></g></g><g class="annotation" data-index="5" style="opacity: 1;"><g class="annotation-text-g" transform="rotate(0,410.67,179.53)"><g class="cursor-pointer" transform="translate(391,171)"><rect class="bg" x="0" y="0" width="39" height="17" style="stroke-width: 0px; stroke: rgb(0, 0, 0); stroke-opacity: 1; fill: rgb(255, 255, 255); fill-opacity: 0.8;"/><text class="annotation-text" text-anchor="middle" x="19.25" y="13" style="font-family: 'Open Sans', verdana, arial, sans-serif; font-size: 12px; fill: rgb(0, 0, 0); fill-opacity: 1; white-space: pre;"><tspan style="font-weight:bold">HSTU</tspan></text></g></g></g><g class="annotation" data-index="6" style="opacity: 1;"><g class="annotation-text-g" transform="rotate(0,218.42,45.04)"><g class="cursor-pointer" transform="translate(169,37)"><rect class="bg" x="0" y="0" width="99" height="17" style="stroke-width: 0px; stroke: rgb(0, 0, 0); stroke-opacity: 1; fill: rgb(255, 255, 255); fill-opacity: 0.8;"/><text class="annotation-text" text-anchor="middle" x="49.390625" y="13" style="font-family: 'Open Sans', verdana, arial, sans-serif; font-size: 12px; fill: rgb(0, 0, 0); fill-opacity: 1; white-space: pre;"><tspan style="font-weight:bold">SASRec+L+gB</tspan></text></g></g></g><g class="annotation" data-index="7" style="opacity: 1;"><g class="annotation-text-g" transform="rotate(0,310.87,147.61)"><g class="cursor-pointer" transform="translate(276,139)"><rect class="bg" x="0" y="0" width="70" height="17" style="stroke-width: 0px; stroke: rgb(0, 0, 0); stroke-opacity: 1; fill: rgb(255, 255, 255); fill-opacity: 0.8;"/><text class="annotation-text" text-anchor="middle" x="35.203125" y="13" style="font-family: 'Open Sans', verdana, arial, sans-serif; font-size: 12px; fill: rgb(105, 105, 105); fill-opacity: 1; white-space: pre;">DAA+L+SS</text></g></g></g><g class="annotation" data-index="8" style="opacity: 1;"><g class="annotation-text-g" transform="rotate(0,356.86,167.75)"><g class="cursor-pointer" transform="translate(322,159)"><rect class="bg" x="0" y="0" width="70" height="17" style="stroke-width: 0px; stroke: rgb(0, 0, 0); stroke-opacity: 1; fill: rgb(255, 255, 255); fill-opacity: 0.8;"/><text class="annotation-text" text-anchor="middle" x="34.84375" y="13" style="font-family: 'Open Sans', verdana, arial, sans-serif; font-size: 12px; fill: rgb(105, 105, 105); fill-opacity: 1; white-space: pre;">DAA+L+gB</text></g></g></g><g class="annotation" data-index="9" style="opacity: 1;"><g class="annotation-text-g" transform="rotate(0,219.4,303.03)"><g class="cursor-pointer" transform="translate(189,295)"><rect class="bg" x="0" y="0" width="61" height="17" style="stroke-width: 0px; stroke: rgb(0, 0, 0); stroke-opacity: 1; fill: rgb(255, 255, 255); fill-opacity: 0.8;"/><text class="annotation-text" text-anchor="middle" x="30.578125" y="13" style="font-family: 'Open Sans', verdana, arial, sans-serif; font-size: 12px; fill: rgb(105, 105, 105); fill-opacity: 1; white-space: pre;">AA+L+SS</text></g></g></g><g class="annotation" data-index="10" style="opacity: 1;"><g class="annotation-text-g" transform="rotate(0,416.05,211.28)"><g class="cursor-pointer" transform="translate(402,203)"><rect class="bg" x="0" y="0" width="28" height="17" style="stroke-width: 0px; stroke: rgb(0, 0, 0); stroke-opacity: 1; fill: rgb(255, 255, 255); fill-opacity: 0.8;"/><text class="annotation-text" text-anchor="middle" x="14.015625" y="13" style="font-family: 'Open Sans', verdana, arial, sans-serif; font-size: 12px; fill: rgb(105, 105, 105); fill-opacity: 1; white-space: pre;">FuXi</text></g></g></g><g class="annotation" data-index="11" style="opacity: 1;"><g class="annotation-text-g" transform="rotate(0,166.57,233.43)"><g class="cursor-pointer" transform="translate(136,225)"><rect class="bg" x="0" y="0" width="62" height="17" style="stroke-width: 0px; stroke: rgb(0, 0, 0); stroke-opacity: 1; fill: rgb(255, 255, 255); fill-opacity: 0.8;"/><text class="annotation-text" text-anchor="middle" x="30.953125" y="13" style="font-family: 'Open Sans', verdana, arial, sans-serif; font-size: 12px; fill: rgb(105, 105, 105); fill-opacity: 1; white-space: pre;">NA+L+SS</text></g></g></g><g class="annotation" data-index="12" style="opacity: 1;"><g class="annotation-text-g" transform="rotate(0,162.17000000000002,108.1)"><g class="cursor-pointer" transform="translate(128,100)"><rect class="bg" x="0" y="0" width="69" height="17" style="stroke-width: 0px; stroke: rgb(0, 0, 0); stroke-opacity: 1; fill: rgb(255, 255, 255); fill-opacity: 0.8;"/><text class="annotation-text" text-anchor="middle" x="34.46875" y="13" style="font-family: 'Open Sans', verdana, arial, sans-serif; font-size: 12px; fill: rgb(105, 105, 105); fill-opacity: 1; white-space: pre;">B4R+L+SS</text></g></g></g><g class="annotation" data-index="13" style="opacity: 1;"><g class="annotation-text-g" transform="rotate(0,779.975,106.11)"><g class="cursor-pointer" transform="translate(731,98)"><rect class="bg" x="0" y="0" width="98" height="17" style="stroke-width: 0px; stroke: rgb(0, 0, 0); stroke-opacity: 1; fill: rgb(255, 255, 255); fill-opacity: 0.8;"/><text class="annotation-text" text-anchor="middle" x="49.15625" y="13" style="font-family: 'Open Sans', verdana, arial, sans-serif; font-size: 12px; fill: rgb(0, 0, 0); fill-opacity: 1; white-space: pre;"><tspan style="font-weight:bold">SASRec+L+SS</tspan></text></g></g></g><g class="annotation" data-index="14" style="opacity: 1;"><g class="annotation-text-g" transform="rotate(0,616.975,301.61)"><g class="cursor-pointer" transform="translate(579,293)"><rect class="bg" x="0" y="0" width="75" height="17" style="stroke-width: 0px; stroke: rgb(0, 0, 0); stroke-opacity: 1; fill: rgb(255, 255, 255); fill-opacity: 0.8;"/><text class="annotation-text" text-anchor="middle" x="37.296875" y="13" style="font-family: 'Open Sans', verdana, arial, sans-serif; font-size: 12px; fill: rgb(105, 105, 105); fill-opacity: 1; white-space: pre;">SASRec+SS</text></g></g></g><g class="annotation" data-index="15" style="opacity: 1;"><g class="annotation-text-g" transform="rotate(0,506.95500000000004,271.2)"><g class="cursor-pointer" transform="translate(483,263)"><rect class="bg" x="0" y="0" width="48" height="17" style="stroke-width: 0px; stroke: rgb(0, 0, 0); stroke-opacity: 1; fill: rgb(255, 255, 255); fill-opacity: 0.8;"/><text class="annotation-text" text-anchor="middle" x="24.1875" y="13" style="font-family: 'Open Sans', verdana, arial, sans-serif; font-size: 12px; fill: rgb(105, 105, 105); fill-opacity: 1; white-space: pre;">SASRec</text></g></g></g><g class="annotation" data-index="16" style="opacity: 1;"><g class="annotation-text-g" transform="rotate(0,817.665,210.82)"><g class="cursor-pointer" transform="translate(798,202)"><rect class="bg" x="0" y="0" width="39" height="17" style="stroke-width: 0px; stroke: rgb(0, 0, 0); stroke-opacity: 1; fill: rgb(255, 255, 255); fill-opacity: 0.8;"/><text class="annotation-text" text-anchor="middle" x="19.25" y="13" style="font-family: 'Open Sans', verdana, arial, sans-serif; font-size: 12px; fill: rgb(0, 0, 0); fill-opacity: 1; white-space: pre;"><tspan style="font-weight:bold">HSTU</tspan></text></g></g></g><g class="annotation" data-index="17" style="opacity: 1;"><g class="annotation-text-g" transform="rotate(0,820.505,160.94)"><g class="cursor-pointer" transform="translate(771,152)"><rect class="bg" x="0" y="0" width="99" height="17" style="stroke-width: 0px; stroke: rgb(0, 0, 0); stroke-opacity: 1; fill: rgb(255, 255, 255); fill-opacity: 0.8;"/><text class="annotation-text" text-anchor="middle" x="49.390625" y="13" style="font-family: 'Open Sans', verdana, arial, sans-serif; font-size: 12px; fill: rgb(0, 0, 0); fill-opacity: 1; white-space: pre;"><tspan style="font-weight:bold">SASRec+L+gB</tspan></text></g></g></g><g class="annotation" data-index="18" style="opacity: 1;"><g class="annotation-text-g" transform="rotate(0,760.615,202.8)"><g class="cursor-pointer" transform="translate(726,194)"><rect class="bg" x="0" y="0" width="70" height="17" style="stroke-width: 0px; stroke: rgb(0, 0, 0); stroke-opacity: 1; fill: rgb(255, 255, 255); fill-opacity: 0.8;"/><text class="annotation-text" text-anchor="middle" x="35.203125" y="13" style="font-family: 'Open Sans', verdana, arial, sans-serif; font-size: 12px; fill: rgb(105, 105, 105); fill-opacity: 1; white-space: pre;">DAA+L+SS</text></g></g></g><g class="annotation" data-index="19" style="opacity: 1;"><g class="annotation-text-g" transform="rotate(0,810.015,257.81)"><g class="cursor-pointer" transform="translate(775,249)"><rect class="bg" x="0" y="0" width="70" height="17" style="stroke-width: 0px; stroke: rgb(0, 0, 0); stroke-opacity: 1; fill: rgb(255, 255, 255); fill-opacity: 0.8;"/><text class="annotation-text" text-anchor="middle" x="34.84375" y="13" style="font-family: 'Open Sans', verdana, arial, sans-serif; font-size: 12px; fill: rgb(105, 105, 105); fill-opacity: 1; white-space: pre;">DAA+L+gB</text></g></g></g><g class="annotation" data-index="20" style="opacity: 1;"><g class="annotation-text-g" transform="rotate(0,656.965,240.94)"><g class="cursor-pointer" transform="translate(626,232)"><rect class="bg" x="0" y="0" width="61" height="17" style="stroke-width: 0px; stroke: rgb(0, 0, 0); stroke-opacity: 1; fill: rgb(255, 255, 255); fill-opacity: 0.8;"/><text class="annotation-text" text-anchor="middle" x="30.578125" y="13" style="font-family: 'Open Sans', verdana, arial, sans-serif; font-size: 12px; fill: rgb(105, 105, 105); fill-opacity: 1; white-space: pre;">AA+L+SS</text></g></g></g><g class="annotation" data-index="21" style="opacity: 1;"><g class="annotation-text-g" transform="rotate(0,752.7850000000001,166.4)"><g class="cursor-pointer" transform="translate(739,158)"><rect class="bg" x="0" y="0" width="28" height="17" style="stroke-width: 0px; stroke: rgb(0, 0, 0); stroke-opacity: 1; fill: rgb(255, 255, 255); fill-opacity: 0.8;"/><text class="annotation-text" text-anchor="middle" x="14.015625" y="13" style="font-family: 'Open Sans', verdana, arial, sans-serif; font-size: 12px; fill: rgb(105, 105, 105); fill-opacity: 1; white-space: pre;">FuXi</text></g></g></g><g class="annotation" data-index="22" style="opacity: 1;"><g class="annotation-text-g" transform="rotate(0,749.585,244.59000000000003)"><g class="cursor-pointer" transform="translate(719,236)"><rect class="bg" x="0" y="0" width="62" height="17" style="stroke-width: 0px; stroke: rgb(0, 0, 0); stroke-opacity: 1; fill: rgb(255, 255, 255); fill-opacity: 0.8;"/><text class="annotation-text" text-anchor="middle" x="30.953125" y="13" style="font-family: 'Open Sans', verdana, arial, sans-serif; font-size: 12px; fill: rgb(105, 105, 105); fill-opacity: 1; white-space: pre;">NA+L+SS</text></g></g></g><g class="annotation" data-index="23" style="opacity: 1;"><g class="annotation-text-g" transform="rotate(0,699.015,280.06)"><g class="cursor-pointer" transform="translate(665,272)"><rect class="bg" x="0" y="0" width="69" height="17" style="stroke-width: 0px; stroke: rgb(0, 0, 0); stroke-opacity: 1; fill: rgb(255, 255, 255); fill-opacity: 0.8;"/><text class="annotation-text" text-anchor="middle" x="34.46875" y="13" style="font-family: 'Open Sans', verdana, arial, sans-serif; font-size: 12px; fill: rgb(105, 105, 105); fill-opacity: 1; white-space: pre;">B4R+L+SS</text></g></g></g></g></svg>